HIERARCHY
ROOT hip
{
  OFFSET 0 0 0
  CHANNELS 6 Xposition Yposition Zposition Zrotation Yrotation Xrotation
  JOINT abdomen
  {
    OFFSET 0 20.6881 -0.73152
    CHANNELS 3 Zrotation Xrotation Yrotation
    JOINT chest
    {
      OFFSET 0 11.7043 -0.48768
      CHANNELS 3 Zrotation Xrotation Yrotation
      JOINT neck
      {
        OFFSET 0 22.1894 -2.19456
        CHANNELS 3 Zrotation Xrotation Yrotation
        JOINT head
        {
          OFFSET -0.24384 7.07133 1.2192
          CHANNELS 3 Zrotation Xrotation Yrotation
          JOINT leftEye
          {
            OFFSET 4.14528 8.04674 8.04672
            CHANNELS 3 Zrotation Xrotation Yrotation
            End Site
            {
              OFFSET 1 0 0
            }
          }
          JOINT rightEye
          {
            OFFSET -3.6576 8.04674 8.04672
            CHANNELS 3 Zrotation Xrotation Yrotation
            End Site
            {
              OFFSET 1 0 0
            }
          }
        }
      }
      JOINT rCollar
      {
        OFFSET -2.68224 19.2634 -4.8768
        CHANNELS 3 Zrotation Xrotation Yrotation
        JOINT rShldr
        {
          OFFSET -8.77824 -1.95073 1.46304
          CHANNELS 3 Zrotation Xrotation Yrotation
          JOINT rForeArm
          {
            OFFSET -28.1742 -1.7115 0.48768
            CHANNELS 3 Zrotation Xrotation Yrotation
            JOINT rHand
            {
              OFFSET -22.5879 0.773209 7.07136
              CHANNELS 3 Zrotation Xrotation Yrotation
              JOINT rThumb1
              {
                OFFSET -1.2192 -0.487915 3.41376
                CHANNELS 3 Zrotation Xrotation Yrotation
                JOINT rThumb2
                {
                  OFFSET -3.37035 -0.52449 3.41376
                  CHANNELS 3 Zrotation Xrotation Yrotation
                  End Site
                  {
                    OFFSET -1.78271 -1.18214 1.43049
                  }
                }
              }
              JOINT rIndex1
              {
                OFFSET -7.75947 0.938293 5.60832
                CHANNELS 3 Zrotation Xrotation Yrotation
                JOINT rIndex2
                {
                  OFFSET -2.54057 -0.884171 1.56538
                  CHANNELS 3 Zrotation Xrotation Yrotation
                  End Site
                  {
                    OFFSET -1.62519 -0.234802 1.16502
                  }
                }
              }
              JOINT rMid1
              {
                OFFSET -8.24714 1.18213 3.41376
                CHANNELS 3 Zrotation Xrotation Yrotation
                JOINT rMid2
                {
                  OFFSET -3.10165 -0.590103 1.0647
                  CHANNELS 3 Zrotation Xrotation Yrotation
                  End Site
                  {
                    OFFSET -2.48547 -0.328903 0.83742
                  }
                }
              }
              JOINT rRing1
              {
                OFFSET -8.82822 0.546677 1.51678
                CHANNELS 3 Zrotation Xrotation Yrotation
                JOINT rRing2
                {
                  OFFSET -2.60934 -0.819778 -0.0198488
                  CHANNELS 3 Zrotation Xrotation Yrotation
                  End Site
                  {
                    OFFSET -2.33842 -0.294052 0.168128
                  }
                }
              }
              JOINT rPinky1
              {
                OFFSET -8.27202 -0.0477905 -0.4584
                CHANNELS 3 Zrotation Xrotation Yrotation
                JOINT rPinky2
                {
                  OFFSET -1.82734 -0.647385 -0.700984
                  CHANNELS 3 Zrotation Xrotation Yrotation
                  End Site
                  {
                    OFFSET -1.69225 -0.51767 -0.607171
                  }
                }
              }
            }
          }
        }
      }
      JOINT lCollar
      {
        OFFSET 2.68224 19.2634 -4.8768
        CHANNELS 3 Zrotation Xrotation Yrotation
        JOINT lShldr
        {
          OFFSET 8.77824 -1.95073 1.46304
          CHANNELS 3 Zrotation Xrotation Yrotation
          JOINT lForeArm
          {
            OFFSET 28.1742 -1.7115 0.48768
            CHANNELS 3 Zrotation Xrotation Yrotation
            JOINT lHand
            {
              OFFSET 22.5879 0.773209 7.07136
              CHANNELS 3 Zrotation Xrotation Yrotation
              JOINT lThumb1
              {
                OFFSET 1.2192 -0.487915 3.41376
                CHANNELS 3 Zrotation Xrotation Yrotation
                JOINT lThumb2
                {
                  OFFSET 3.37035 -0.52449 3.41376
                  CHANNELS 3 Zrotation Xrotation Yrotation
                  End Site
                  {
                    OFFSET 1.78271 -1.18214 1.43049
                  }
                }
              }
              JOINT lIndex1
              {
                OFFSET 7.75947 0.938293 5.60832
                CHANNELS 3 Zrotation Xrotation Yrotation
                JOINT lIndex2
                {
                  OFFSET 2.54057 -0.884171 1.56538
                  CHANNELS 3 Zrotation Xrotation Yrotation
                  End Site
                  {
                    OFFSET 1.62519 -0.234802 1.16502
                  }
                }
              }
              JOINT lMid1
              {
                OFFSET 8.24714 1.18213 3.41376
                CHANNELS 3 Zrotation Xrotation Yrotation
                JOINT lMid2
                {
                  OFFSET 3.10165 -0.590103 1.0647
                  CHANNELS 3 Zrotation Xrotation Yrotation
                  End Site
                  {
                    OFFSET 2.48547 -0.328903 0.83742
                  }
                }
              }
              JOINT lRing1
              {
                OFFSET 8.82822 0.546677 1.51678
                CHANNELS 3 Zrotation Xrotation Yrotation
                JOINT lRing2
                {
                  OFFSET 2.60934 -0.819778 -0.0198488
                  CHANNELS 3 Zrotation Xrotation Yrotation
                  End Site
                  {
                    OFFSET 2.33842 -0.294052 0.168128
                  }
                }
              }
              JOINT lPinky1
              {
                OFFSET 8.27202 -0.0477905 -0.4584
                CHANNELS 3 Zrotation Xrotation Yrotation
                JOINT lPinky2
                {
                  OFFSET 1.82734 -0.647385 -0.700984
                  CHANNELS 3 Zrotation Xrotation Yrotation
                  End Site
                  {
                    OFFSET 1.69225 -0.51767 -0.607171
                  }
                }
              }
            }
          }
        }
      }
    }
  }
  JOINT rButtock
  {
    OFFSET -8.77824 4.35084 1.2192
    CHANNELS 3 Zrotation Xrotation Yrotation
    JOINT rThigh
    {
      OFFSET 0 -1.70687 -2.19456
      CHANNELS 3 Zrotation Xrotation Yrotation
      JOINT rShin
      {
        OFFSET 0 -36.8199 0.73152
        CHANNELS 3 Zrotation Xrotation Yrotation
        JOINT rFoot
        {
          OFFSET 0.73152 -45.1104 -5.12064
          CHANNELS 3 Zrotation Xrotation Yrotation
          End Site
          {
            OFFSET -1.1221 -3.69964 12.103
          }
        }
      }
    }
  }
  JOINT lButtock
  {
    OFFSET 8.77824 4.35084 1.2192
    CHANNELS 3 Zrotation Xrotation Yrotation
    JOINT lThigh
    {
      OFFSET 0 -1.70687 -2.19456
      CHANNELS 3 Zrotation Xrotation Yrotation
      JOINT lShin
      {
        OFFSET 0 -36.8199 0.73152
        CHANNELS 3 Zrotation Xrotation Yrotation
        JOINT lFoot
        {
          OFFSET -0.73152 -45.1104 -5.12064
          CHANNELS 3 Zrotation Xrotation Yrotation
          End Site
          {
            OFFSET 1.1221 -3.69964 12.103
          }
        }
      }
    }
  }
}
MOTION
Frames:	5
Frame Time:	0.00833333
75.6876 84.0842 31.7398 0.0 0.0 0.0 -1.54494 -0.00284661 -0.0420517 -0.425428 0.00110915 -0.0736759 5.05654e-15 0.0 -3.23025e-16 1.53872e-14 3.18055e-15 -1.14612e-15 -0.0 0.0 0.0 -0.0 0.0 0.0 2.83157e-15 2.05773e-17 9.93923e-17 5.52412e-14 5.03174e-16 -2.98177e-15 9.36027e-13 -2.61799e-13 -6.36111e-14 1.06909e-11 3.59601e-13 -7.31528e-13 2.52172e-11 2.12559e-13 -1.72068e-12 4.35358e-11 3.68944e-13 -2.96428e-12 2.52198e-11 2.11507e-13 -1.72704e-12 7.73091 5.47488 0.417314 2.52153e-11 2.11805e-13 -1.7175e-12 2.90554 0.965183 0.102902 2.52219e-11 2.12302e-13 -1.71591e-12 10.2786 0.731801 0.0259123 2.52091e-11 2.16675e-13 -1.71114e-12 2.22167 -0.733487 -0.20892 2.53578e-15 2.3101e-17 -4.47265e-16 5.49126e-14 1.80149e-16 -3.97569e-15 9.36276e-13 2.9281e-13 -8.26944e-14 1.0722e-11 -1.98437e-13 -6.93361e-13 2.52901e-11 2.08865e-13 -1.70796e-12 4.36933e-11 3.65764e-13 -2.94758e-12 2.52846e-11 2.08724e-13 -1.69206e-12 -7.73091 5.47488 -0.417314 2.52904e-11 2.08724e-13 -1.71114e-12 -2.90554 0.965183 -0.102902 2.52872e-11 2.09121e-13 -1.70796e-12 -10.2786 0.731801 -0.0259123 2.52971e-11 2.127e-13 -1.7175e-12 -2.22167 -0.733487 0.20892 -2.03217e-16 0.0 -3.88251e-19 -0.631646 -1.92333 -0.00658639 -0.00945099 -2.07853 -0.0781638 -0.540873 3.99724 0.144557 2.03217e-16 0.0 3.88251e-19 -1.71434 -6.54907 0.158531 -0.00227192 6.30062 -0.069083 0.559398 0.243967 -0.0686358
74.7935 82.92 22.3688 179.638 -4.4425 -174.413 -2.00324 -1.92023 -1.52854 -0.127774 0.694623 -0.499607 0.918465 2.20524 0.153192 0.942584 -5.1344 0.423985 -0.0 0.0 0.0 -0.0 0.0 0.0 8.98384e-15 3.40444e-14 4.50531e-14 21.9317 3.65967 1.21338 -2.13552 -0.752197 3.53479 0.08559 6.50267 0.892835 -1.24155e-10 7.33934e-11 7.78215e-11 -2.12822e-10 1.24078e-10 1.37788e-10 -1.24148e-10 7.33886e-11 7.78161e-11 7.73091 5.47488 0.417314 -1.24155e-10 7.33891e-11 7.78268e-11 2.90554 0.965183 0.102902 -1.24149e-10 7.33895e-11 7.78261e-11 10.2786 0.731801 0.0259123 -1.24163e-10 7.33931e-11 7.78323e-11 2.22167 -0.733487 -0.20892 8.74584e-15 3.40465e-14 4.45313e-14 -22.7368 3.17854 -2.37014 1.74444 -0.579703 -2.9119 -0.0512473 5.0256 -0.696528 2.51506e-11 -1.00557e-10 -8.38853e-11 4.32757e-11 -1.74312e-10 -1.45654e-10 2.51463e-11 -1.00556e-10 -8.38716e-11 -7.73091 5.47488 -0.417314 2.5152e-11 -1.00557e-10 -8.38887e-11 -2.90554 0.965183 -0.102902 2.51483e-11 -1.00557e-10 -8.38851e-11 -10.2786 0.731801 -0.0259123 2.51582e-11 -1.00553e-10 -8.38931e-11 -2.22167 -0.733487 0.20892 -2.03217e-16 0.0 -3.88251e-19 -2.40231 -2.30717 0.087103 -0.00607193 1.44322 -0.014004 -0.720867 1.73159 -4.91728 2.03217e-16 0.0 3.88251e-19 -0.405642 -8.89219 -0.382018 -0.00375202 12.2278 -0.163129 0.504981 -5.07086 0.312254
74.654 82.9269 22.2932 179.731 -4.5835 -174.46 -2.59473 -3.94074 -3.11449 0.200763 1.42062 -0.952791 1.86443 4.54085 0.322305 2.03042 -10.5473 0.899606 -0.0 0.0 0.0 -0.0 0.0 0.0 1.58927e-14 7.36586e-14 9.14006e-14 44.9483 7.56132 2.50817 -4.29659 -1.53984 7.28059 -0.0497163 13.3406 1.87145 -2.58713e-10 1.42082e-10 1.48322e-10 -4.43849e-10 2.40254e-10 2.62661e-10 -2.58702e-10 1.42073e-10 1.48317e-10 7.73091 5.47488 0.417314 -2.5871e-10 1.42074e-10 1.4833e-10 2.90554 0.965183 0.102902 -2.58706e-10 1.42074e-10 1.48326e-10 10.2786 0.731801 0.0259123 -2.58721e-10 1.42077e-10 1.48334e-10 2.22167 -0.733487 -0.20892 1.57151e-14 7.36604e-14 9.09036e-14 -46.4884 6.50644 -4.88946 3.52286 -1.18679 -5.98826 0.0294771 10.3441 -1.45205 1.69064e-11 -1.97831e-10 -1.50456e-10 2.91421e-11 -3.42757e-10 -2.61368e-10 1.69033e-11 -1.97831e-10 -1.50445e-10 -7.73091 5.47488 -0.417314 1.69088e-11 -1.97831e-10 -1.5046e-10 -2.90554 0.965183 -0.102902 1.69047e-11 -1.97831e-10 -1.50456e-10 -10.2786 0.731801 -0.0259123 1.69146e-11 -1.97828e-10 -1.50462e-10 -2.22167 -0.733487 0.20892 -2.03217e-16 0.0 -3.88251e-19 -4.26477 -2.71496 0.186243 -0.0110948 5.16643 0.0539884 -1.34323 -0.63724 -10.2594 2.03217e-16 0.0 3.88251e-19 0.933554 -11.3654 -0.97829 0.0169456 18.4896 -0.269366 0.531361 -10.691 0.748587
74.5205 82.9168 22.2153 179.809 -4.6916 -174.542 -3.21923 -5.73925 -4.52165 0.498482 2.08115 -1.35225 2.71982 6.61552 0.462315 3.06292 -15.3998 1.31404 -0.0 0.0 0.0 -0.0 0.0 0.0 2.12884e-14 1.02092e-13 1.3496e-13 65.3231 10.9591 3.70028 -6.12971 -2.22226 10.6115 -0.38239 19.4885 2.82313 -4.229e-10 2.19755e-10 2.36906e-10 -7.25537e-10 3.71497e-10 4.19292e-10 -4.22885e-10 2.19743e-10 2.36902e-10 7.73091 5.47488 0.417314 -4.22895e-10 2.19744e-10 2.36915e-10 2.90554 0.965183 0.102902 -4.22892e-10 2.19744e-10 2.3691e-10 10.2786 0.731801 0.0259123 -4.22908e-10 2.19746e-10 2.36919e-10 2.22167 -0.733487 -0.20892 2.1166e-14 1.02093e-13 1.34488e-13 -67.4146 9.46992 -7.19808 5.05725 -1.72115 -8.73924 0.223843 15.0677 -2.1557 2.48718e-11 -3.02088e-10 -2.4824e-10 4.24406e-11 -5.23669e-10 -4.31066e-10 2.48697e-11 -3.02087e-10 -2.48231e-10 -7.73091 5.47488 -0.417314 2.48751e-11 -3.02088e-10 -2.48244e-10 -2.90554 0.965183 -0.102902 2.48705e-11 -3.02088e-10 -2.4824e-10 -10.2786 0.731801 -0.0259123 2.48803e-11 -3.02085e-10 -2.48244e-10 -2.22167 -0.733487 0.20892 -2.03217e-16 0.0 -3.88251e-19 -5.93986 -3.07481 0.274658 -0.0230859 8.48669 0.115491 -2.26963 -2.68532 -15.0504 2.03217e-16 0.0 3.88251e-19 2.07554 -13.5746 -1.48887 0.0571867 24.0817 -0.373459 0.614792 -15.6979 1.11184
74.3641 82.893 22.146 179.763 -4.7715 -174.568 -3.71223 -6.99805 -5.4625 0.69748 2.57846 -1.61669 3.37645 8.03806 0.526675 3.77514 -18.8548 1.53234 -0.0 0.0 0.0 -0.0 0.0 0.0 2.29013e-14 1.02573e-13 1.71551e-13 79.4348 13.1163 4.57599 -7.33963 -2.67482 12.8984 -0.757928 23.9291 3.57554 -6.61161e-10 3.19891e-10 3.707e-10 -1.13388e-09 5.40411e-10 6.55317e-10 -6.61144e-10 3.19877e-10 3.70697e-10 7.73091 5.47488 0.417314 -6.61155e-10 3.19879e-10 3.7071e-10 2.90554 0.965183 0.102902 -6.61152e-10 3.19878e-10 3.70703e-10 10.2786 0.731801 0.0259123 -6.61169e-10 3.1988e-10 3.70713e-10 2.22167 -0.733487 -0.20892 2.28207e-14 1.02574e-13 1.71104e-13 -81.8296 11.5829 -8.8992 6.10491 -2.09066 -10.6734 0.429809 18.313 -2.66607 7.33611e-11 -4.23799e-10 -4.24057e-10 1.2432e-10 -7.35748e-10 -7.35724e-10 7.33595e-11 -4.23797e-10 -4.24047e-10 -7.73091 5.47488 -0.417314 7.33651e-11 -4.23799e-10 -4.2406e-10 -2.90554 0.965183 -0.102902 7.33597e-11 -4.23799e-10 -4.24056e-10 -10.2786 0.731801 -0.0259123 7.33696e-11 -4.23797e-10 -4.2406e-10 -2.22167 -0.733487 0.20892 -2.03217e-16 0.0 -3.88251e-19 -7.14924 -3.31482 0.336121 -0.0356855 10.7996 0.159225 -3.12545 -4.06301 -18.434 2.03217e-16 0.0 3.88251e-19 2.82803 -15.1272 -1.76277 0.0994539 27.9997 -0.453137 0.661896 -19.175 1.25004
